<?xml version="1.0" encoding="utf-8"?>
<!-- Generator: Adobe Illustrator 23.0.3, SVG Export Plug-In . SVG Version: 6.00 Build 0)  -->
<svg version="1.1" id="Layer_1" xmlns="http://www.w3.org/2000/svg" xmlns:xlink="http://www.w3.org/1999/xlink" x="0px" y="0px"
	 viewBox="0 0 800.2 389.1" style="enable-background:new 0 0 800.2 389.1;" xml:space="preserve">
<style type="text/css">
	.st0{fill:none;stroke:#000000;stroke-width:10;stroke-linecap:round;}
</style>
<path id="Unnamed" class="st0" d="M30,237.1c0,0,26-43,51-68c33-40,52-61,81-104c49-73,2-30-16,16c-15,66,52-5,26,61
	c-7,31-27,52-39,47c-7.1-4.4,26-30,55-15c18,4,44,73-11,161c-26,36-48,47-42-18c11-56,74-134,87-146c66-73-14,48,29,15
	c32-19-2,28,78-38 M376.1,110c0,0-23,45-23,58 M376.1,69c60-51,121-62,77-11c-23,29,15,30,27,53c12,18-13,61-38,77
	c-60,26-8-63,50-21c18,13,53-1,99-30c127-91,0-39-25,2c-38,43-29,88,89,53c23-7,94-34,121-31"/>
</svg>
